<svg xmlns="http://www.w3.org/2000/svg" xmlns:xlink="http://www.w3.org/1999/xlink" version="1.1" x="0px" y="0px" viewBox="0 0 100 125" enable-background="new 0 0 100 100" xml:space="preserve"><g><path d="M50,5C25.2,5,5,25.1,5,50s20.2,45,45,45s45-20.1,45-45S74.8,5,50,5z M75,45.3C75,59,51.2,69.8,50.2,70.2L50,70.3l-0.2-0.1   C48.8,69.8,25,59,25,45.3v-0.6c-0.1-4,1.5-7.9,4.3-10.7s6.5-4.3,10.4-4.3c3.9,0,7.5,1.5,10.3,4.2c2.8-2.7,6.4-4.2,10.3-4.2   c3.9,0,7.6,1.5,10.4,4.3c2.9,2.9,4.5,6.9,4.3,11V45.3z"/></g><text x="0" y="115" fill="#000000" font-size="5px" font-weight="bold" font-family="'Helvetica Neue', Helvetica, Arial-Unicode, Arial, Sans-serif">Created by Hysen Drogu</text><text x="0" y="120" fill="#000000" font-size="5px" font-weight="bold" font-family="'Helvetica Neue', Helvetica, Arial-Unicode, Arial, Sans-serif">from the Noun Project</text></svg>